<svg width="36" height="36" viewBox="0 0 36 36" fill="none" xmlns="http://www.w3.org/2000/svg">
<path d="M23.9304 24.8221C26.0569 22.8374 27.002 19.5296 26.4349 16.3636H17.9764V19.8604H22.7963C22.6073 20.9945 21.9457 21.9396 21.0007 22.5539L23.9304 24.8221Z" fill="#4285F4"/>
<path d="M9.94324 22.0341C10.0207 22.1865 10.1023 22.3366 10.1882 22.4845C10.2741 22.6324 10.3641 22.7777 10.4581 22.9204C10.5523 23.0631 10.6503 23.2031 10.7523 23.3403C10.8543 23.4776 10.9601 23.6117 11.0697 23.743C11.1793 23.8742 11.2925 24.0023 11.4094 24.1271C11.5262 24.2519 11.6465 24.3733 11.7702 24.4914C11.8939 24.6094 12.0208 24.7238 12.151 24.8347C12.2811 24.9455 12.4143 25.0526 12.5506 25.156C12.6868 25.2593 12.8258 25.3587 12.9676 25.4541C13.1095 25.5496 13.2539 25.6409 13.401 25.7282C13.5479 25.8155 13.6973 25.8986 13.849 25.9775C14.0007 26.0563 14.1545 26.1309 14.3104 26.201C14.4664 26.2711 14.6241 26.3369 14.7838 26.3981C14.9434 26.4593 15.1046 26.516 15.2675 26.5681C15.4303 26.6202 15.5945 26.6678 15.76 26.7106C15.9255 26.7534 16.0921 26.7915 16.2598 26.825C16.4275 26.8584 16.5959 26.8871 16.7653 26.911C16.9345 26.9348 17.1044 26.954 17.2748 26.9682C17.4451 26.9825 17.6158 26.992 17.7867 26.9966C17.9576 27.0013 18.1285 27.0011 18.2994 26.9961C18.4703 26.9911 18.6409 26.9813 18.8113 26.9666C18.9816 26.9519 19.1514 26.9325 19.3207 26.9082C19.4899 26.884 19.6583 26.8549 19.826 26.8211C19.9936 26.7873 20.1601 26.7489 20.3255 26.7057C20.4909 26.6625 20.655 26.6147 20.8177 26.5622C20.9804 26.5097 21.1415 26.4527 21.3011 26.3911C21.4605 26.3295 21.6182 26.2635 21.774 26.193C21.9298 26.1225 22.0834 26.0477 22.2349 25.9685C22.3865 25.8894 22.5356 25.8059 22.6825 25.7183C22.8293 25.6307 22.9735 25.539 23.1151 25.4433C23.2568 25.3475 23.3956 25.2478 23.5316 25.1442C23.6676 25.0406 23.8006 24.9332 23.9305 24.8221L21.0007 22.5539C18.4963 24.2078 14.3379 23.5935 12.9202 19.7186L9.94324 22.0341Z" fill="#34A853"/>
<path d="M12.9202 19.7186C12.5422 18.5373 12.5422 17.4504 12.9202 16.269L9.94323 13.9536C8.85639 16.1273 8.52562 19.1988 9.94323 22.0341L12.9202 19.7186Z" fill="#FBBC02"/>
<path d="M12.9202 16.269C13.9599 13.0085 18.4018 11.1184 21.3788 13.9063L23.9778 11.3546C20.2919 7.81057 13.1093 7.9523 9.94324 13.9536L12.9202 16.269Z" fill="#EA4335"/>
</svg>
